<?xml version="1.0" encoding="UTF-8" standalone="no"?>
<!DOCTYPE svg PUBLIC "-//W3C//DTD SVG 1.1//EN"
 "http://www.w3.org/Graphics/SVG/1.1/DTD/svg11.dtd">
<!-- Generated by graphviz version 2.26.3 (20100126.1600)
 -->
<!-- Title: DependencyGraph Pages: 1 -->
<svg width="4270pt" height="416pt"
 viewBox="0.00 0.00 4270.00 416.00" xmlns="http://www.w3.org/2000/svg" xmlns:xlink="http://www.w3.org/1999/xlink">
<g id="graph1" class="graph" transform="scale(1 1) rotate(0) translate(4 412)">
<title>DependencyGraph</title>
<polygon fill="white" stroke="white" points="-4,5 -4,-412 4267,-412 4267,5 -4,5"/>
<!-- adhocracy&#45;1.1 -->
<g id="node1" class="node"><title>adhocracy&#45;1.1</title>
<ellipse fill="none" stroke="black" cx="1303" cy="-389" rx="80.1095" ry="18.3848"/>
<text text-anchor="middle" x="1303" y="-385.4" font-family="Times Roman,serif" font-size="14.00">adhocracy&#45;1.1</text>
</g>
<!-- pylons&#45;0.9.7 -->
<g id="node3" class="node"><title>pylons&#45;0.9.7</title>
<ellipse fill="none" stroke="black" cx="147" cy="-241" rx="72.1249" ry="18.3848"/>
<text text-anchor="middle" x="147" y="-237.4" font-family="Times Roman,serif" font-size="14.00">pylons&#45;0.9.7</text>
</g>
<!-- adhocracy&#45;1.1&#45;&gt;pylons&#45;0.9.7 -->
<g id="edge2" class="edge"><title>adhocracy&#45;1.1&#45;&gt;pylons&#45;0.9.7</title>
<path fill="none" stroke="black" d="M1222.65,-388.327C960.185,-385.739 142.636,-374.449 104,-334 85.8058,-314.952 103.048,-286.823 120.818,-266.492"/>
<polygon fill="black" stroke="black" points="123.403,-268.852 127.582,-259.117 118.244,-264.121 123.403,-268.852"/>
</g>
<!-- sqlalchemy&#45;0.7.2 -->
<g id="node5" class="node"><title>sqlalchemy&#45;0.7.2</title>
<ellipse fill="none" stroke="black" cx="840" cy="-241" rx="94.7523" ry="18.3848"/>
<text text-anchor="middle" x="840" y="-237.4" font-family="Times Roman,serif" font-size="14.00">sqlalchemy&#45;0.7.2</text>
</g>
<!-- adhocracy&#45;1.1&#45;&gt;sqlalchemy&#45;0.7.2 -->
<g id="edge4" class="edge"><title>adhocracy&#45;1.1&#45;&gt;sqlalchemy&#45;0.7.2</title>
<path fill="none" stroke="black" d="M1224.45,-385.395C1097.66,-378.762 859.457,-362.617 834,-334 818.637,-316.73 822.289,-289.772 828.518,-269.318"/>
<polygon fill="black" stroke="black" points="831.922,-270.18 831.817,-259.586 825.292,-267.933 831.922,-270.18"/>
</g>
<!-- sqlalchemy&#45;migrate&#45;0.7.1 -->
<g id="node7" class="node"><title>sqlalchemy&#45;migrate&#45;0.7.1</title>
<ellipse fill="none" stroke="black" cx="1385" cy="-315" rx="135.765" ry="18.3848"/>
<text text-anchor="middle" x="1385" y="-311.4" font-family="Times Roman,serif" font-size="14.00">sqlalchemy&#45;migrate&#45;0.7.1</text>
</g>
<!-- adhocracy&#45;1.1&#45;&gt;sqlalchemy&#45;migrate&#45;0.7.1 -->
<g id="edge6" class="edge"><title>adhocracy&#45;1.1&#45;&gt;sqlalchemy&#45;migrate&#45;0.7.1</title>
<path fill="none" stroke="black" d="M1323.27,-370.708C1333.52,-361.458 1346.12,-350.091 1357.25,-340.042"/>
<polygon fill="black" stroke="black" points="1359.6,-342.636 1364.68,-333.338 1354.91,-337.439 1359.6,-342.636"/>
</g>
<!-- formencode&#45;1.2.4 -->
<g id="node9" class="node"><title>formencode&#45;1.2.4</title>
<ellipse fill="none" stroke="black" cx="97" cy="-167" rx="97.0803" ry="18.3848"/>
<text text-anchor="middle" x="97" y="-163.4" font-family="Times Roman,serif" font-size="14.00">formencode&#45;1.2.4</text>
</g>
<!-- adhocracy&#45;1.1&#45;&gt;formencode&#45;1.2.4 -->
<g id="edge8" class="edge"><title>adhocracy&#45;1.1&#45;&gt;formencode&#45;1.2.4</title>
<path fill="none" stroke="black" d="M1222.88,-387.785C960.095,-383.486 138.533,-367.421 93,-334 51.7221,-303.702 53.0035,-271.527 66,-222 68.4926,-212.501 73.0374,-202.915 77.8928,-194.465"/>
<polygon fill="black" stroke="black" points="80.9614,-196.156 83.2008,-185.801 74.9924,-192.499 80.9614,-196.156"/>
</g>
<!-- repoze.who&#45;2.1 -->
<g id="node11" class="node"><title>repoze.who&#45;2.1</title>
<ellipse fill="none" stroke="black" cx="873" cy="-93" rx="89.0955" ry="18.3848"/>
<text text-anchor="middle" x="873" y="-89.4" font-family="Times Roman,serif" font-size="14.00">repoze.who&#45;2.1</text>
</g>
<!-- adhocracy&#45;1.1&#45;&gt;repoze.who&#45;2.1 -->
<g id="edge10" class="edge"><title>adhocracy&#45;1.1&#45;&gt;repoze.who&#45;2.1</title>
<path fill="none" stroke="black" d="M1273.96,-371.505C1261.15,-362.115 1247.36,-349.311 1240,-334 1204.16,-259.424 1287.23,-209.609 1232,-148 1214.38,-128.34 1066.13,-110.862 965.734,-101.126"/>
<polygon fill="black" stroke="black" points="965.855,-97.622 955.567,-100.151 965.187,-104.59 965.855,-97.622"/>
</g>
<!-- repoze.what&#45;1.0.8 -->
<g id="node13" class="node"><title>repoze.what&#45;1.0.8</title>
<ellipse fill="none" stroke="black" cx="561" cy="-241" rx="103.238" ry="18.3848"/>
<text text-anchor="middle" x="561" y="-237.4" font-family="Times Roman,serif" font-size="14.00">repoze.what&#45;1.0.8</text>
</g>
<!-- adhocracy&#45;1.1&#45;&gt;repoze.what&#45;1.0.8 -->
<g id="edge12" class="edge"><title>adhocracy&#45;1.1&#45;&gt;repoze.what&#45;1.0.8</title>
<path fill="none" stroke="black" d="M1223.27,-386.986C1010.5,-381.227 443.441,-363.195 416,-334 404.433,-321.694 406.406,-309.9 416,-296 425.396,-282.387 459.175,-269.171 491.768,-259.108"/>
<polygon fill="black" stroke="black" points="492.792,-262.454 501.36,-256.222 490.776,-255.751 492.792,-262.454"/>
</g>
<!-- repoze.who.plugins.sa&#45;1.0rc2 -->
<g id="node15" class="node"><title>repoze.who.plugins.sa&#45;1.0rc2</title>
<ellipse fill="none" stroke="black" cx="999" cy="-315" rx="155.771" ry="18.3848"/>
<text text-anchor="middle" x="999" y="-311.4" font-family="Times Roman,serif" font-size="14.00">repoze.who.plugins.sa&#45;1.0rc2</text>
</g>
<!-- adhocracy&#45;1.1&#45;&gt;repoze.who.plugins.sa&#45;1.0rc2 -->
<g id="edge14" class="edge"><title>adhocracy&#45;1.1&#45;&gt;repoze.who.plugins.sa&#45;1.0rc2</title>
<path fill="none" stroke="black" d="M1247.6,-375.513C1199.87,-363.897 1130.46,-347 1077.1,-334.012"/>
<polygon fill="black" stroke="black" points="1077.88,-330.599 1067.34,-331.634 1076.22,-337.4 1077.88,-330.599"/>
</g>
<!-- repoze.what&#45;pylons&#45;1.0 -->
<g id="node17" class="node"><title>repoze.what&#45;pylons&#45;1.0</title>
<ellipse fill="none" stroke="black" cx="241" cy="-315" rx="128.193" ry="18.3848"/>
<text text-anchor="middle" x="241" y="-311.4" font-family="Times Roman,serif" font-size="14.00">repoze.what&#45;pylons&#45;1.0</text>
</g>
<!-- adhocracy&#45;1.1&#45;&gt;repoze.what&#45;pylons&#45;1.0 -->
<g id="edge16" class="edge"><title>adhocracy&#45;1.1&#45;&gt;repoze.what&#45;pylons&#45;1.0</title>
<path fill="none" stroke="black" d="M1223.78,-386.222C1064.33,-380.197 693.368,-364.001 383,-334 369.553,-332.7 355.419,-331.097 341.496,-329.377"/>
<polygon fill="black" stroke="black" points="341.767,-325.883 331.408,-328.106 340.893,-332.828 341.767,-325.883"/>
</g>
<!-- repoze.what.plugins.sql&#45;1.0rc4 -->
<g id="node19" class="node"><title>repoze.what.plugins.sql&#45;1.0rc4</title>
<ellipse fill="none" stroke="black" cx="587" cy="-315" rx="162.134" ry="18.3848"/>
<text text-anchor="middle" x="587" y="-311.4" font-family="Times Roman,serif" font-size="14.00">repoze.what.plugins.sql&#45;1.0rc4</text>
</g>
<!-- adhocracy&#45;1.1&#45;&gt;repoze.what.plugins.sql&#45;1.0rc4 -->
<g id="edge18" class="edge"><title>adhocracy&#45;1.1&#45;&gt;repoze.what.plugins.sql&#45;1.0rc4</title>
<path fill="none" stroke="black" d="M1229.18,-381.624C1125.18,-371.199 929.589,-351.476 763,-334 747.307,-332.354 730.829,-330.604 714.512,-328.857"/>
<polygon fill="black" stroke="black" points="714.698,-325.357 704.382,-327.772 713.952,-332.317 714.698,-325.357"/>
</g>
<!-- repoze.who&#45;friendlyform&#45;1.0.4 -->
<g id="node21" class="node"><title>repoze.who&#45;friendlyform&#45;1.0.4</title>
<ellipse fill="none" stroke="black" cx="1062" cy="-167" rx="161.22" ry="18.3848"/>
<text text-anchor="middle" x="1062" y="-163.4" font-family="Times Roman,serif" font-size="14.00">repoze.who&#45;friendlyform&#45;1.0.4</text>
</g>
<!-- adhocracy&#45;1.1&#45;&gt;repoze.who&#45;friendlyform&#45;1.0.4 -->
<g id="edge20" class="edge"><title>adhocracy&#45;1.1&#45;&gt;repoze.who&#45;friendlyform&#45;1.0.4</title>
<path fill="none" stroke="black" d="M1267.43,-372.275C1248.5,-362.502 1225.4,-349.125 1207,-334 1155.18,-291.405 1106.56,-229.176 1080.91,-193.945"/>
<polygon fill="black" stroke="black" points="1083.58,-191.665 1074.89,-185.599 1077.9,-195.758 1083.58,-191.665"/>
</g>
<!-- repoze.who&#45;testutil&#45;1.0 -->
<g id="node23" class="node"><title>repoze.who&#45;testutil&#45;1.0</title>
<ellipse fill="none" stroke="black" cx="717" cy="-167" rx="127.986" ry="18.3848"/>
<text text-anchor="middle" x="717" y="-163.4" font-family="Times Roman,serif" font-size="14.00">repoze.who&#45;testutil&#45;1.0</text>
</g>
<!-- adhocracy&#45;1.1&#45;&gt;repoze.who&#45;testutil&#45;1.0 -->
<g id="edge22" class="edge"><title>adhocracy&#45;1.1&#45;&gt;repoze.who&#45;testutil&#45;1.0</title>
<path fill="none" stroke="black" d="M1223.83,-385.729C1105.88,-379.894 890.388,-365.247 820,-334 774.525,-313.813 760.94,-303.052 736,-260 724.639,-240.389 720.001,-215.008 718.142,-195.716"/>
<polygon fill="black" stroke="black" points="721.628,-195.402 717.37,-185.701 714.649,-195.94 721.628,-195.402"/>
</g>
<!-- python&#45;twitter&#45;0.8.6 -->
<g id="node25" class="node"><title>python&#45;twitter&#45;0.8.6</title>
<ellipse fill="none" stroke="black" cx="1652" cy="-315" rx="113.137" ry="18.3848"/>
<text text-anchor="middle" x="1652" y="-311.4" font-family="Times Roman,serif" font-size="14.00">python&#45;twitter&#45;0.8.6</text>
</g>
<!-- adhocracy&#45;1.1&#45;&gt;python&#45;twitter&#45;0.8.6 -->
<g id="edge24" class="edge"><title>adhocracy&#45;1.1&#45;&gt;python&#45;twitter&#45;0.8.6</title>
<path fill="none" stroke="black" d="M1362.2,-376.447C1420.17,-364.157 1508.85,-345.352 1572.85,-331.783"/>
<polygon fill="black" stroke="black" points="1573.84,-335.15 1582.9,-329.652 1572.39,-328.302 1573.84,-335.15"/>
</g>
<!-- oauth&#45;1.0.1 -->
<g id="node27" class="node"><title>oauth&#45;1.0.1</title>
<ellipse fill="none" stroke="black" cx="1852" cy="-315" rx="68.7979" ry="18.3848"/>
<text text-anchor="middle" x="1852" y="-311.4" font-family="Times Roman,serif" font-size="14.00">oauth&#45;1.0.1</text>
</g>
<!-- adhocracy&#45;1.1&#45;&gt;oauth&#45;1.0.1 -->
<g id="edge26" class="edge"><title>adhocracy&#45;1.1&#45;&gt;oauth&#45;1.0.1</title>
<path fill="none" stroke="black" d="M1378.88,-383.026C1472.31,-375.008 1635.64,-358.833 1774,-334 1780.12,-332.901 1786.48,-331.608 1792.8,-330.222"/>
<polygon fill="black" stroke="black" points="1793.7,-333.608 1802.68,-327.982 1792.15,-326.781 1793.7,-333.608"/>
</g>
<!-- babel&#45;0.9.6 -->
<g id="node29" class="node"><title>babel&#45;0.9.6</title>
<ellipse fill="none" stroke="black" cx="2006" cy="-315" rx="67.1751" ry="18.3848"/>
<text text-anchor="middle" x="2006" y="-311.4" font-family="Times Roman,serif" font-size="14.00">babel&#45;0.9.6</text>
</g>
<!-- adhocracy&#45;1.1&#45;&gt;babel&#45;0.9.6 -->
<g id="edge28" class="edge"><title>adhocracy&#45;1.1&#45;&gt;babel&#45;0.9.6</title>
<path fill="none" stroke="black" d="M1379.89,-383.778C1523.23,-373.791 1826.14,-351.426 1930,-334 1936.07,-332.981 1942.38,-331.728 1948.64,-330.356"/>
<polygon fill="black" stroke="black" points="1949.44,-333.763 1958.4,-328.117 1947.87,-326.94 1949.44,-333.763"/>
</g>
<!-- beautifulsoup&#45;3.2.1 -->
<g id="node31" class="node"><title>beautifulsoup&#45;3.2.1</title>
<ellipse fill="none" stroke="black" cx="2198" cy="-315" rx="106.773" ry="18.3848"/>
<text text-anchor="middle" x="2198" y="-311.4" font-family="Times Roman,serif" font-size="14.00">beautifulsoup&#45;3.2.1</text>
</g>
<!-- adhocracy&#45;1.1&#45;&gt;beautifulsoup&#45;3.2.1 -->
<g id="edge30" class="edge"><title>adhocracy&#45;1.1&#45;&gt;beautifulsoup&#45;3.2.1</title>
<path fill="none" stroke="black" d="M1380.02,-383.754C1569.88,-370.797 2047.53,-338.031 2082,-334 2092.14,-332.814 2102.74,-331.367 2113.24,-329.805"/>
<polygon fill="black" stroke="black" points="2113.9,-333.245 2123.26,-328.277 2112.85,-326.325 2113.9,-333.245"/>
</g>
<!-- python&#45;openid&#45;2.2.4 -->
<g id="node33" class="node"><title>python&#45;openid&#45;2.2.4</title>
<ellipse fill="none" stroke="black" cx="2434" cy="-315" rx="111.222" ry="18.3848"/>
<text text-anchor="middle" x="2434" y="-311.4" font-family="Times Roman,serif" font-size="14.00">python&#45;openid&#45;2.2.4</text>
</g>
<!-- adhocracy&#45;1.1&#45;&gt;python&#45;openid&#45;2.2.4 -->
<g id="edge32" class="edge"><title>adhocracy&#45;1.1&#45;&gt;python&#45;openid&#45;2.2.4</title>
<path fill="none" stroke="black" d="M1379.52,-383.52C1436.67,-379.515 1516.7,-374.092 1587,-370 1909.96,-351.202 1992.22,-367.344 2314,-334 2324.76,-332.885 2336.03,-331.454 2347.17,-329.878"/>
<polygon fill="black" stroke="black" points="2347.95,-333.301 2357.34,-328.395 2346.94,-326.374 2347.95,-333.301"/>
</g>
<!-- python&#45;memcached&#45;1.47 -->
<g id="node35" class="node"><title>python&#45;memcached&#45;1.47</title>
<ellipse fill="none" stroke="black" cx="2696" cy="-315" rx="132.936" ry="18.3848"/>
<text text-anchor="middle" x="2696" y="-311.4" font-family="Times Roman,serif" font-size="14.00">python&#45;memcached&#45;1.47</text>
</g>
<!-- adhocracy&#45;1.1&#45;&gt;python&#45;memcached&#45;1.47 -->
<g id="edge34" class="edge"><title>adhocracy&#45;1.1&#45;&gt;python&#45;memcached&#45;1.47</title>
<path fill="none" stroke="black" d="M1379.2,-383.288C1436.37,-379.152 1516.55,-373.667 1587,-370 2016.49,-347.643 2125.48,-370.56 2554,-334 2567.26,-332.869 2581.18,-331.38 2594.91,-329.733"/>
<polygon fill="black" stroke="black" points="2595.36,-333.204 2604.86,-328.508 2594.51,-326.256 2595.36,-333.204"/>
</g>
<!-- solrpy&#45;0.9.3 -->
<g id="node37" class="node"><title>solrpy&#45;0.9.3</title>
<ellipse fill="none" stroke="black" cx="2917" cy="-315" rx="70.0036" ry="18.3848"/>
<text text-anchor="middle" x="2917" y="-311.4" font-family="Times Roman,serif" font-size="14.00">solrpy&#45;0.9.3</text>
</g>
<!-- adhocracy&#45;1.1&#45;&gt;solrpy&#45;0.9.3 -->
<g id="edge36" class="edge"><title>adhocracy&#45;1.1&#45;&gt;solrpy&#45;0.9.3</title>
<path fill="none" stroke="black" d="M1378.9,-383.135C1436.07,-378.908 1516.42,-373.375 1587,-370 1864.8,-356.715 2562.32,-370.714 2838,-334 2844.67,-333.112 2851.6,-331.895 2858.46,-330.502"/>
<polygon fill="black" stroke="black" points="2859.38,-333.884 2868.41,-328.355 2857.9,-327.042 2859.38,-333.884"/>
</g>
<!-- markdown2&#45;1.0.1.9 -->
<g id="node39" class="node"><title>markdown2&#45;1.0.1.9</title>
<ellipse fill="none" stroke="black" cx="3114" cy="-315" rx="108.894" ry="18.3848"/>
<text text-anchor="middle" x="3114" y="-311.4" font-family="Times Roman,serif" font-size="14.00">markdown2&#45;1.0.1.9</text>
</g>
<!-- adhocracy&#45;1.1&#45;&gt;markdown2&#45;1.0.1.9 -->
<g id="edge38" class="edge"><title>adhocracy&#45;1.1&#45;&gt;markdown2&#45;1.0.1.9</title>
<path fill="none" stroke="black" d="M1378.89,-383.069C1436.07,-378.808 1516.41,-373.262 1587,-370 2212.76,-341.086 2372.26,-391.921 2996,-334 3006.84,-332.994 3018.18,-331.602 3029.38,-330.026"/>
<polygon fill="black" stroke="black" points="3030.21,-333.442 3039.6,-328.532 3029.2,-326.515 3030.21,-333.442"/>
</g>
<!-- lxml&#45;3.0 -->
<g id="node41" class="node"><title>lxml&#45;3.0</title>
<ellipse fill="none" stroke="black" cx="3292" cy="-315" rx="51.1176" ry="18.3848"/>
<text text-anchor="middle" x="3292" y="-311.4" font-family="Times Roman,serif" font-size="14.00">lxml&#45;3.0</text>
</g>
<!-- adhocracy&#45;1.1&#45;&gt;lxml&#45;3.0 -->
<g id="edge40" class="edge"><title>adhocracy&#45;1.1&#45;&gt;lxml&#45;3.0</title>
<path fill="none" stroke="black" d="M1378.89,-382.993C1436.06,-378.694 1516.4,-373.132 1587,-370 1952.28,-353.792 2871.28,-393.798 3232,-334 3236.67,-333.225 3241.48,-332.169 3246.25,-330.947"/>
<polygon fill="black" stroke="black" points="3247.23,-334.308 3255.92,-328.246 3245.34,-327.566 3247.23,-334.308"/>
</g>
<!-- pylons&#45;0.9.7&#45;&gt;formencode&#45;1.2.4 -->
<g id="edge60" class="edge"><title>pylons&#45;0.9.7&#45;&gt;formencode&#45;1.2.4</title>
<path fill="none" stroke="black" d="M134.64,-222.708C128.795,-214.057 121.699,-203.554 115.25,-194.01"/>
<polygon fill="black" stroke="black" points="118.063,-191.922 109.565,-185.596 112.263,-195.841 118.063,-191.922"/>
</g>
<!-- distribute&#45;0.6.16dev&#45;r0 -->
<g id="node43" class="node"><title>distribute&#45;0.6.16dev&#45;r0</title>
<ellipse fill="none" stroke="black" cx="873" cy="-19" rx="125.865" ry="18.3848"/>
<text text-anchor="middle" x="873" y="-15.4" font-family="Times Roman,serif" font-size="14.00">distribute&#45;0.6.16dev&#45;r0</text>
</g>
<!-- repoze.who&#45;2.1&#45;&gt;distribute&#45;0.6.16dev&#45;r0 -->
<g id="edge42" class="edge"><title>repoze.who&#45;2.1&#45;&gt;distribute&#45;0.6.16dev&#45;r0</title>
<path fill="none" stroke="black" d="M873,-74.3267C873,-66.2639 873,-56.6477 873,-47.7115"/>
<polygon fill="black" stroke="black" points="876.5,-47.6673 873,-37.6674 869.5,-47.6674 876.5,-47.6673"/>
</g>
<!-- repoze.what&#45;1.0.8&#45;&gt;repoze.who&#45;2.1 -->
<g id="edge64" class="edge"><title>repoze.what&#45;1.0.8&#45;&gt;repoze.who&#45;2.1</title>
<path fill="none" stroke="black" d="M559.197,-222.471C558.252,-201.403 560.268,-167.419 580,-148 607.613,-120.825 703.133,-106.624 777.692,-99.5169"/>
<polygon fill="black" stroke="black" points="778.428,-102.964 788.065,-98.5605 777.786,-95.9935 778.428,-102.964"/>
</g>
<!-- repoze.what&#45;1.0.8&#45;&gt;repoze.who&#45;testutil&#45;1.0 -->
<g id="edge66" class="edge"><title>repoze.what&#45;1.0.8&#45;&gt;repoze.who&#45;testutil&#45;1.0</title>
<path fill="none" stroke="black" d="M597.575,-223.65C619.262,-213.363 646.969,-200.22 670.234,-189.184"/>
<polygon fill="black" stroke="black" points="672.036,-192.203 679.571,-184.755 669.035,-185.879 672.036,-192.203"/>
</g>
<!-- repoze.who.plugins.sa&#45;1.0rc2&#45;&gt;sqlalchemy&#45;0.7.2 -->
<g id="edge46" class="edge"><title>repoze.who.plugins.sa&#45;1.0rc2&#45;&gt;sqlalchemy&#45;0.7.2</title>
<path fill="none" stroke="black" d="M960.104,-296.898C937.703,-286.472 909.423,-273.31 885.932,-262.377"/>
<polygon fill="black" stroke="black" points="887.399,-259.199 876.856,-258.153 884.445,-265.546 887.399,-259.199"/>
</g>
<!-- repoze.who.plugins.sa&#45;1.0rc2&#45;&gt;repoze.who&#45;2.1 -->
<g id="edge44" class="edge"><title>repoze.who.plugins.sa&#45;1.0rc2&#45;&gt;repoze.who&#45;2.1</title>
<path fill="none" stroke="black" d="M990.917,-296.324C981.638,-276.351 964.962,-244.516 944,-222 924.847,-201.426 907.484,-209.46 892,-186 879.439,-166.968 874.906,-141.339 873.392,-121.805"/>
<polygon fill="black" stroke="black" points="876.878,-121.452 872.83,-111.661 869.888,-121.839 876.878,-121.452"/>
</g>
<!-- repoze.what&#45;pylons&#45;1.0&#45;&gt;pylons&#45;0.9.7 -->
<g id="edge56" class="edge"><title>repoze.what&#45;pylons&#45;1.0&#45;&gt;pylons&#45;0.9.7</title>
<path fill="none" stroke="black" d="M217.764,-296.708C205.723,-287.228 190.857,-275.526 177.864,-265.297"/>
<polygon fill="black" stroke="black" points="179.667,-262.262 169.644,-258.826 175.337,-267.762 179.667,-262.262"/>
</g>
<!-- repoze.what&#45;pylons&#45;1.0&#45;&gt;repoze.what&#45;1.0.8 -->
<g id="edge54" class="edge"><title>repoze.what&#45;pylons&#45;1.0&#45;&gt;repoze.what&#45;1.0.8</title>
<path fill="none" stroke="black" d="M308.864,-299.307C361.369,-287.165 433.954,-270.379 487.767,-257.935"/>
<polygon fill="black" stroke="black" points="488.633,-261.327 497.587,-255.664 487.056,-254.507 488.633,-261.327"/>
</g>
<!-- repoze.what.plugins.sql&#45;1.0rc4&#45;&gt;sqlalchemy&#45;0.7.2 -->
<g id="edge50" class="edge"><title>repoze.what.plugins.sql&#45;1.0rc4&#45;&gt;sqlalchemy&#45;0.7.2</title>
<path fill="none" stroke="black" d="M645.998,-297.744C685.387,-286.223 737.123,-271.09 777.262,-259.35"/>
<polygon fill="black" stroke="black" points="778.326,-262.686 786.941,-256.519 776.361,-255.967 778.326,-262.686"/>
</g>
<!-- repoze.what.plugins.sql&#45;1.0rc4&#45;&gt;repoze.what&#45;1.0.8 -->
<g id="edge48" class="edge"><title>repoze.what.plugins.sql&#45;1.0rc4&#45;&gt;repoze.what&#45;1.0.8</title>
<path fill="none" stroke="black" d="M580.439,-296.327C577.545,-288.089 574.08,-278.229 570.883,-269.13"/>
<polygon fill="black" stroke="black" points="574.176,-267.942 567.559,-259.667 567.572,-270.262 574.176,-267.942"/>
</g>
<!-- repoze.who&#45;friendlyform&#45;1.0.4&#45;&gt;repoze.who&#45;2.1 -->
<g id="edge58" class="edge"><title>repoze.who&#45;friendlyform&#45;1.0.4&#45;&gt;repoze.who&#45;2.1</title>
<path fill="none" stroke="black" d="M1016.25,-149.087C988.471,-138.211 952.956,-124.305 924.238,-113.061"/>
<polygon fill="black" stroke="black" points="925.368,-109.745 914.78,-109.358 922.816,-116.263 925.368,-109.745"/>
</g>
<!-- repoze.who&#45;testutil&#45;1.0&#45;&gt;repoze.who&#45;2.1 -->
<g id="edge52" class="edge"><title>repoze.who&#45;testutil&#45;1.0&#45;&gt;repoze.who&#45;2.1</title>
<path fill="none" stroke="black" d="M754.366,-149.275C776.39,-138.828 804.411,-125.536 827.689,-114.493"/>
<polygon fill="black" stroke="black" points="829.478,-117.519 837.013,-110.071 826.478,-111.194 829.478,-117.519"/>
</g>
<!-- setuptools&#45;0.6c11 -->
<g id="node44" class="node"><title>setuptools&#45;0.6c11</title>
<ellipse fill="none" stroke="black" cx="1695" cy="-389" rx="98.9949" ry="18.3848"/>
<text text-anchor="middle" x="1695" y="-385.4" font-family="Times Roman,serif" font-size="14.00">setuptools&#45;0.6c11</text>
</g>
<!-- python&#45;3.2.2 -->
<g id="node45" class="node"><title>python&#45;3.2.2</title>
<ellipse fill="none" stroke="black" cx="2277" cy="-389" rx="75.1594" ry="18.3848"/>
<text text-anchor="middle" x="2277" y="-385.4" font-family="Times Roman,serif" font-size="14.00">python&#45;3.2.2</text>
</g>
<!-- docutils&#45;0.10 -->
<g id="node48" class="node"><title>docutils&#45;0.10</title>
<ellipse fill="none" stroke="black" cx="3224" cy="-389" rx="74.9533" ry="18.3848"/>
<text text-anchor="middle" x="3224" y="-385.4" font-family="Times Roman,serif" font-size="14.00">docutils&#45;0.10</text>
</g>
<!-- beautifulsoup4&#45;4.1.3 -->
<g id="node52" class="node"><title>beautifulsoup4&#45;4.1.3</title>
<ellipse fill="none" stroke="black" cx="3474" cy="-315" rx="113.137" ry="18.3848"/>
<text text-anchor="middle" x="3474" y="-311.4" font-family="Times Roman,serif" font-size="14.00">beautifulsoup4&#45;4.1.3</text>
</g>
<!-- jac&#45;0.9 -->
<g id="node57" class="node"><title>jac&#45;0.9</title>
<ellipse fill="none" stroke="black" cx="3474" cy="-389" rx="44.0472" ry="18.3848"/>
<text text-anchor="middle" x="3474" y="-385.4" font-family="Times Roman,serif" font-size="14.00">jac&#45;0.9</text>
</g>
<!-- jac&#45;0.9&#45;&gt;beautifulsoup4&#45;4.1.3 -->
<g id="edge62" class="edge"><title>jac&#45;0.9&#45;&gt;beautifulsoup4&#45;4.1.3</title>
<path fill="none" stroke="black" d="M3474,-370.327C3474,-362.264 3474,-352.648 3474,-343.711"/>
<polygon fill="black" stroke="black" points="3477.5,-343.667 3474,-333.667 3470.5,-343.667 3477.5,-343.667"/>
</g>
<!-- distutils2&#45;py3&#45;1.0a5.dev0 -->
<g id="node59" class="node"><title>distutils2&#45;py3&#45;1.0a5.dev0</title>
<ellipse fill="none" stroke="black" cx="3673" cy="-389" rx="137.179" ry="18.3848"/>
<text text-anchor="middle" x="3673" y="-385.4" font-family="Times Roman,serif" font-size="14.00">distutils2&#45;py3&#45;1.0a5.dev0</text>
</g>
<!-- wsgiref&#45;0.1.2 -->
<g id="node60" class="node"><title>wsgiref&#45;0.1.2</title>
<ellipse fill="none" stroke="black" cx="3903" cy="-389" rx="75.1594" ry="18.3848"/>
<text text-anchor="middle" x="3903" y="-385.4" font-family="Times Roman,serif" font-size="14.00">wsgiref&#45;0.1.2</text>
</g>
<!-- pip&#45;1.2.1 -->
<g id="node63" class="node"><title>pip&#45;1.2.1</title>
<ellipse fill="none" stroke="black" cx="4051" cy="-389" rx="55.1543" ry="18.3848"/>
<text text-anchor="middle" x="4051" y="-385.4" font-family="Times Roman,serif" font-size="14.00">pip&#45;1.2.1</text>
</g>
<!-- distlib&#45;0.1.0 -->
<g id="node64" class="node"><title>distlib&#45;0.1.0</title>
<ellipse fill="none" stroke="black" cx="4193" cy="-389" rx="68.7979" ry="18.3848"/>
<text text-anchor="middle" x="4193" y="-385.4" font-family="Times Roman,serif" font-size="14.00">distlib&#45;0.1.0</text>
</g>
</g>
</svg>
